<svg width="20" height="20" viewBox="0 0 20 20" fill="none" xmlns="http://www.w3.org/2000/svg">
<g clip-path="url(#clip0_208_131)">
<path d="M3.75 9.375H16.25" stroke="#FAFAFA" stroke-width="1.5" stroke-linecap="round" stroke-linejoin="round"/>
<path d="M6.5 11.875L6.25 9.375H13.75L13.5 11.875" stroke="#FAFAFA" stroke-width="1.5" stroke-linecap="round" stroke-linejoin="round"/>
<path d="M7.8125 2.8125C7.8125 3.39266 8.04297 3.94906 8.45317 4.3593C8.86342 4.76953 9.41983 5 10 5C10.5802 5 11.1366 4.76953 11.5468 4.3593C11.957 3.94906 12.1875 3.39266 12.1875 2.8125C12.1875 2.23234 11.957 1.67594 11.5468 1.2657C11.1366 0.855467 10.5802 0.625 10 0.625C9.41983 0.625 8.86342 0.855467 8.45317 1.2657C8.04297 1.67594 7.8125 2.23234 7.8125 2.8125Z" stroke="#FAFAFA" stroke-width="1.5" stroke-linecap="round" stroke-linejoin="round"/>
<path d="M12.7075 6.87502C12.3736 6.48289 11.9585 6.16796 11.4909 5.952C11.0232 5.73603 10.5143 5.62418 9.99921 5.62418C9.48413 5.62418 8.97521 5.73603 8.50763 5.952C8.04001 6.16796 7.62487 6.48289 7.29089 6.87502" stroke="#FAFAFA" stroke-width="1.5" stroke-linecap="round" stroke-linejoin="round"/>
<path d="M1.14502 15.3125C1.14502 15.8927 1.37549 16.4491 1.78573 16.8593C2.19596 17.2695 2.75236 17.5 3.33252 17.5C3.91269 17.5 4.46909 17.2695 4.87932 16.8593C5.28955 16.4491 5.52002 15.8927 5.52002 15.3125C5.52002 14.7323 5.28955 14.1759 4.87932 13.7657C4.46909 13.3555 3.91269 13.125 3.33252 13.125C2.75236 13.125 2.19596 13.3555 1.78573 13.7657C1.37549 14.1759 1.14502 14.7323 1.14502 15.3125Z" stroke="#FAFAFA" stroke-width="1.5" stroke-linecap="round" stroke-linejoin="round"/>
<path d="M6.03996 19.375C5.70599 18.9829 5.29084 18.668 4.82324 18.452C4.35563 18.236 3.84669 18.1242 3.33163 18.1242C2.81655 18.1242 2.30762 18.236 1.84001 18.452C1.3724 18.668 0.957261 18.9829 0.623291 19.375" stroke="#FAFAFA" stroke-width="1.5" stroke-linecap="round" stroke-linejoin="round"/>
<path d="M7.8125 15.3125C7.8125 15.8927 8.04297 16.4491 8.45317 16.8593C8.86342 17.2695 9.41983 17.5 10 17.5C10.5802 17.5 11.1366 17.2695 11.5468 16.8593C11.957 16.4491 12.1875 15.8927 12.1875 15.3125C12.1875 14.7323 11.957 14.1759 11.5468 13.7657C11.1366 13.3555 10.5802 13.125 10 13.125C9.41983 13.125 8.86342 13.3555 8.45317 13.7657C8.04297 14.1759 7.8125 14.7323 7.8125 15.3125Z" stroke="#FAFAFA" stroke-width="1.5" stroke-linecap="round" stroke-linejoin="round"/>
<path d="M12.7075 19.375C12.3736 18.9829 11.9585 18.668 11.4909 18.452C11.0232 18.236 10.5143 18.1242 9.99921 18.1242C9.48413 18.1242 8.97521 18.236 8.50763 18.452C8.04001 18.668 7.62487 18.9829 7.29089 19.375" stroke="#FAFAFA" stroke-width="1.5" stroke-linecap="round" stroke-linejoin="round"/>
<path d="M14.48 15.3125C14.48 15.8927 14.7104 16.4491 15.1206 16.8593C15.5309 17.2695 16.0873 17.5 16.6675 17.5C17.2476 17.5 17.804 17.2695 18.2142 16.8593C18.6245 16.4491 18.855 15.8927 18.855 15.3125C18.855 14.7323 18.6245 14.1759 18.2142 13.7657C17.804 13.3555 17.2476 13.125 16.6675 13.125C16.0873 13.125 15.5309 13.3555 15.1206 13.7657C14.7104 14.1759 14.48 14.7323 14.48 15.3125Z" stroke="#FAFAFA" stroke-width="1.5" stroke-linecap="round" stroke-linejoin="round"/>
<path d="M19.375 19.375C19.041 18.9829 18.626 18.668 18.1583 18.452C17.6907 18.236 17.1818 18.1242 16.6667 18.1242C16.1516 18.1242 15.6427 18.236 15.1751 18.452C14.7075 18.668 14.2924 18.9829 13.9584 19.375" stroke="#FAFAFA" stroke-width="1.5" stroke-linecap="round" stroke-linejoin="round"/>
</g>
<defs>
<clipPath id="clip0_208_131">
<rect width="20" height="20" fill="white"/>
</clipPath>
</defs>
</svg>
