<svg width="20" height="20" viewBox="0 0 20 20" fill="none" xmlns="http://www.w3.org/2000/svg">
<g clip-path="url(#clip0_208_124)">
<path d="M12.1875 12.5V17.0983C12.1875 17.3974 12.1286 17.6935 12.0141 17.9697C11.8997 18.246 11.7319 18.4971 11.5204 18.7085C11.3089 18.9199 11.0578 19.0876 10.7815 19.2019C10.5052 19.3163 10.2091 19.3751 9.91 19.375H4.465C4.16595 19.3751 3.86982 19.3163 3.5935 19.2019C3.31719 19.0876 3.06611 18.9199 2.85462 18.7085C2.64312 18.4971 2.47535 18.246 2.36088 17.9697C2.24642 17.6935 2.1875 17.3974 2.1875 17.0983V4.1525C2.1875 3.54847 2.42745 2.96917 2.85457 2.54207C3.28167 2.11495 3.86097 1.875 4.465 1.875H7.8125" stroke="#FAFAFA" stroke-width="1.5" stroke-linecap="round" stroke-linejoin="round"/>
<path d="M2.1875 15.625H12.1875" stroke="#FAFAFA" stroke-width="1.5" stroke-linecap="round" stroke-linejoin="round"/>
<path d="M16.7016 0.691741L8.29493 4.29507C8.15526 4.35444 8.03549 4.45255 7.94979 4.57781C7.86409 4.70307 7.81603 4.85024 7.8113 5.00194C7.80657 5.15363 7.84536 5.30352 7.92308 5.43387C8.00082 5.56423 8.11423 5.66962 8.24993 5.73757L11.2149 7.22007L12.6974 10.1859C12.7654 10.3214 12.8707 10.4347 13.0009 10.5124C13.131 10.5902 13.2807 10.6291 13.4323 10.6246C13.5838 10.6201 13.7309 10.5725 13.8563 10.4872C13.9816 10.402 14.08 10.2827 14.1399 10.1434L17.7499 1.73674C17.8132 1.5902 17.8309 1.42802 17.8008 1.27128C17.7707 1.11455 17.6941 0.970483 17.5811 0.857808C17.468 0.745132 17.3237 0.669045 17.1669 0.639431C17.01 0.609816 16.8479 0.628042 16.7016 0.691741Z" stroke="#FAFAFA" stroke-width="1.5" stroke-linecap="round" stroke-linejoin="round"/>
</g>
<defs>
<clipPath id="clip0_208_124">
<rect width="20" height="20" fill="white"/>
</clipPath>
</defs>
</svg>
